# Blender 4.1.1
# www.blender.org
mtllib bridge_single.mtl
o PonteDeTijolos
v -1.555930 4.570571 -0.867871
v -7.479601 4.570571 -0.867871
v -7.479601 4.570571 2.665030
v -1.555930 4.570571 2.665030
v -9.035532 3.863011 -0.867871
v -9.035532 2.882461 -0.867871
v -9.035532 2.523481 0.960250
v -9.035532 3.372671 1.629260
v 0.000000 2.882461 -0.867871
v 0.000000 2.523481 0.960250
v 0.000000 3.863011 -0.867871
v 0.000000 3.372671 1.629270
v -7.479601 4.570571 4.716101
v -1.555930 4.570571 4.716101
v -9.035532 1.542750 2.298521
v -9.035532 2.033031 3.457290
v 0.000000 1.542750 2.298521
v 0.000000 2.033031 3.457290
v -9.035532 0.203050 2.788361
v -9.035532 0.203050 4.126401
v 0.000000 0.203050 2.788371
v 0.000000 0.203050 4.126401
v -9.035532 0.203050 -5.862132
v -9.035532 0.203050 -4.524101
v -9.035532 1.542750 -4.034261
v -9.035532 2.033030 -5.193031
v 0.000000 0.203050 -4.524101
v 0.000000 1.542750 -4.034261
v 0.000000 0.203050 -5.862132
v 0.000000 2.033030 -5.193021
v -1.555930 4.570570 -6.483202
v -7.479601 4.570570 -6.483202
v -7.479601 4.570570 -4.163941
v -1.555930 4.570570 -4.163941
v -9.035532 2.523480 -2.695981
v -9.035532 3.372671 -3.365001
v 0.000000 2.523480 -2.695981
v 0.000000 3.372671 -3.365001
v -0.588730 3.863011 -0.867871
v -0.588730 3.372671 1.629270
v -8.446802 3.372671 1.629260
v -8.446802 3.863011 -0.867871
v -0.588730 2.033031 3.457290
v -8.446802 2.033031 3.457290
v -0.588730 0.619790 3.974021
v -8.446802 0.619790 3.974021
v -0.588730 0.619790 -5.709751
v -0.588730 2.033030 -5.193021
v -8.446802 0.619790 -5.709761
v -8.446802 2.033030 -5.193031
v -0.588730 3.372671 -3.365001
v -8.446802 3.372671 -3.365001
v -0.672830 4.570571 -0.867871
v -0.672830 4.570571 2.665030
v -8.362701 4.570571 2.665030
v -8.362701 4.570571 -0.867871
v -0.672830 4.570571 4.880361
v -8.362701 4.570571 4.880361
v -0.672830 0.649850 4.880361
v -8.362701 0.649850 4.880361
v -0.672830 0.649850 -6.624962
v -0.672830 4.570570 -6.624962
v -8.362701 0.649850 -6.624962
v -8.362701 4.570570 -6.624962
v -0.672830 4.570570 -4.163941
v -8.362701 4.570570 -4.163941
v -0.761510 5.248551 1.798370
v -0.761510 5.512841 -0.437951
v -1.467260 5.211761 -0.706171
v -1.467260 5.248551 2.155890
v -8.258402 5.649181 -0.350111
v -8.258402 5.448582 2.321030
v -7.583891 5.448582 2.321030
v -7.583901 5.649181 -0.350111
v -0.779690 5.464272 4.523430
v -0.779690 5.464272 3.364400
v -1.449070 5.464272 3.139110
v -1.449070 5.464272 4.578031
v -8.189372 5.433251 2.896660
v -8.189372 5.317662 4.424351
v -7.652932 5.420562 4.324301
v -7.652932 5.433251 2.896660
v -0.643300 5.464271 -4.817052
v -0.664180 5.329151 -6.569902
v -1.343490 5.464271 -6.457532
v -1.343490 5.464271 -4.618642
v -8.375011 5.329931 -6.382992
v -8.260822 5.386291 -4.360541
v -7.581481 5.386291 -4.360541
v -7.745412 5.328331 -6.022012
v -0.715310 5.383211 -1.277561
v -0.837080 5.156101 -3.882321
v -1.513460 5.156101 -4.043561
v -1.513460 5.383211 -1.106271
v -8.290202 5.362581 -3.893371
v -8.290212 5.451691 -0.972141
v -7.552092 5.451691 -0.972141
v -7.552092 5.362581 -3.893371
v -7.479601 5.189131 -0.745741
v -7.479601 5.039051 2.617730
v -8.362701 5.039051 2.617730
v -8.362701 5.189131 -0.745741
v -7.421412 4.909561 -3.967971
v -7.479601 5.014441 -0.867871
v -8.362701 5.014441 -0.867871
v -8.350882 4.909561 -3.967971
v -7.507612 4.906291 2.731820
v -7.507612 5.094471 4.777591
v -8.334692 5.094471 4.931841
v -8.334692 4.906291 2.731820
v -7.479601 5.037771 -6.319912
v -7.479601 5.021991 -4.108401
v -8.362701 5.021991 -4.108401
v -8.362701 5.037771 -6.461632
v -1.555930 5.070101 -4.217701
v -1.555930 4.817941 -6.443712
v -0.672830 4.817941 -6.585432
v -0.672830 5.070101 -4.217701
v -1.555930 4.898491 -1.011601
v -1.555930 4.847931 -4.074781
v -0.672830 4.847931 -4.074781
v -0.672830 4.898491 -1.011601
v -1.555930 4.940381 2.665030
v -1.555930 4.896171 -0.882181
v -0.672830 4.896171 -0.882181
v -0.672830 4.940381 2.665030
v -1.555930 5.032832 4.716101
v -1.555930 5.032831 2.809160
v -0.672830 5.032831 2.798760
v -0.672830 5.032832 4.815101
v -9.403122 0.218381 7.203632
v 0.288190 0.218381 7.203632
v 0.288190 0.218380 2.551970
v -9.403122 0.218380 2.551970
v -9.403122 -0.355920 7.203632
v 0.288190 -0.355920 7.203632
v 0.288190 -0.355920 2.551970
v -9.403122 -0.355920 2.551970
v -8.898492 -0.566180 3.763031
v -8.898492 -0.566180 5.992571
v -0.216430 -0.566180 3.763031
v -0.216430 -0.566180 5.992571
v -8.898492 -2.963151 3.763031
v -8.898492 -2.963150 5.992571
v -0.216430 -2.963151 3.763031
v -0.216430 -2.963150 5.992571
v -1.555930 4.570572 10.636972
v -7.479601 4.570572 10.636972
v -7.479601 4.570572 14.169863
v -1.555930 4.570572 14.169873
v -9.035532 3.863012 10.636972
v -9.035532 2.882461 10.636972
v -9.035532 2.523482 12.465083
v -9.035532 3.372672 13.134104
v 0.000000 2.882461 10.636972
v 0.000000 2.523482 12.465094
v 0.000000 3.863012 10.636972
v 0.000000 3.372672 13.134104
v -7.479601 4.570572 16.220943
v -1.555930 4.570572 16.220943
v -9.035532 1.542751 13.803363
v -9.035532 2.033032 14.962134
v 0.000000 1.542751 13.803363
v 0.000000 2.033032 14.962134
v -9.035532 0.203041 14.293204
v -9.035532 0.203041 15.631234
v 0.000000 0.203041 14.293204
v 0.000000 0.203041 15.631234
v -9.035532 0.203050 5.642712
v -9.035532 0.203051 6.980742
v -9.035532 1.542751 7.470582
v -9.035532 2.033031 6.311811
v 0.000000 0.203051 6.980742
v 0.000000 1.542751 7.470582
v 0.000000 0.203050 5.642712
v 0.000000 2.033031 6.311811
v -1.555930 4.570571 5.021641
v -7.479601 4.570571 5.021641
v -7.479601 4.570571 7.340901
v -1.555930 4.570571 7.340901
v -9.035532 2.523481 8.808852
v -9.035532 3.372672 8.139842
v 0.000000 2.523481 8.808852
v 0.000000 3.372672 8.139842
v -0.588730 3.863012 10.636972
v -0.588730 3.372672 13.134104
v -8.446802 3.372672 13.134104
v -8.446802 3.863012 10.636972
v -0.588730 2.033032 14.962134
v -8.446802 2.033032 14.962134
v -0.588730 0.619791 15.478864
v -8.446802 0.619781 15.478864
v -0.588730 0.619791 5.795082
v -0.588730 2.033031 6.311811
v -8.446802 0.619791 5.795082
v -8.446802 2.033031 6.311811
v -0.588730 3.372672 8.139842
v -8.446802 3.372672 8.139842
v -0.672830 4.570572 10.636972
v -0.672830 4.570572 14.169873
v -8.362701 4.570572 14.169873
v -8.362701 4.570572 10.636972
v -0.672840 4.570572 16.396553
v -8.362701 4.570572 16.396553
v -0.672840 0.646371 16.396553
v -8.362701 0.646371 16.396553
v -0.672830 4.570571 7.340901
v -8.362701 4.570571 7.340901
v -0.761510 5.248552 13.303203
v -0.761510 5.512842 11.066893
v -1.467260 5.211762 10.798673
v -1.467260 5.248552 13.660733
v -8.258402 5.649182 11.154733
v -8.258402 5.448583 13.825864
v -7.583891 5.448583 13.825864
v -7.583901 5.649182 11.154733
v -0.779690 5.464273 16.028275
v -0.779690 5.464272 14.869234
v -1.449070 5.464272 14.643953
v -1.449070 5.464273 16.082874
v -8.189372 5.433252 14.401504
v -8.189372 5.317663 15.929193
v -7.652932 5.420563 15.829144
v -7.652932 5.433252 14.401504
v -0.643300 5.464272 6.687791
v -0.664180 5.329152 4.934941
v -1.343490 5.464272 5.047301
v -1.343490 5.464272 6.886191
v -8.375011 5.329932 5.121840
v -8.260822 5.386292 7.144301
v -7.581481 5.386292 7.144301
v -7.745412 5.328321 5.482821
v -0.715310 5.383212 10.227283
v -0.837080 5.156102 7.622521
v -1.513460 5.156102 7.461271
v -1.513460 5.383212 10.398573
v -8.290202 5.362582 7.611462
v -8.290212 5.451692 10.532692
v -7.552092 5.451692 10.532692
v -7.552092 5.362582 7.611462
v -7.479601 5.189132 10.759103
v -7.479601 5.039052 14.122573
v -8.362692 5.039052 14.122573
v -8.362701 5.189132 10.759103
v -7.421412 4.909562 7.536871
v -7.479601 5.014442 10.636972
v -8.362701 5.014442 10.636972
v -8.350882 4.909562 7.536871
v -7.507612 4.906292 14.236653
v -7.507612 5.094462 16.282425
v -8.334692 5.094462 16.436674
v -8.334692 4.906292 14.236663
v -7.479601 5.037762 5.184931
v -7.479601 5.021992 7.396441
v -8.362692 5.021992 7.396441
v -8.362701 5.037762 5.043211
v -1.555930 5.070102 7.287141
v -1.555930 4.817942 5.061131
v -0.672830 4.817942 4.919411
v -0.672830 5.070102 7.287141
v -1.555930 4.898492 10.493243
v -1.555930 4.847932 7.430061
v -0.672830 4.847932 7.430061
v -0.672830 4.898492 10.493243
v -1.555930 4.940382 14.169873
v -1.555930 4.896172 10.622663
v -0.672830 4.896172 10.622663
v -0.672840 4.940382 14.169873
v -1.555930 5.032833 16.220943
v -1.555930 5.032832 14.314003
v -0.672830 5.032832 14.303594
v -0.672840 5.032833 16.319944
v -9.403122 0.218381 18.700495
v 0.288190 0.218381 18.700495
v 0.288190 0.218381 14.048824
v -9.403122 0.218381 14.048824
v -9.403122 -0.355919 18.700495
v 0.288190 -0.355919 18.700495
v 0.288190 -0.355919 14.048824
v -9.403122 -0.355919 14.048824
v -8.898492 -0.566179 15.259884
v -8.898492 -0.566179 17.489435
v -0.216430 -0.566179 15.259884
v -0.216430 -0.566179 17.489435
v -8.898492 -2.963150 15.259884
v -8.898492 -2.963149 17.489435
v -0.216430 -2.963150 15.259884
v -0.216430 -2.963149 17.489435
v -9.403112 0.218380 -4.269901
v 0.288190 0.218380 -4.269901
v 0.288190 0.218379 -8.921572
v -9.403112 0.218379 -8.921572
v -9.403112 -0.355920 -4.269901
v 0.288200 -0.355920 -4.269901
v 0.288190 -0.355921 -8.921572
v -9.403112 -0.355921 -8.921572
v -8.898492 -0.566181 -7.710512
v -8.898492 -0.566181 -5.480961
v -0.216430 -0.566181 -7.710512
v -0.216430 -0.566181 -5.480961
v -8.898492 -2.963151 -7.710512
v -8.898492 -2.963151 -5.480961
v -0.216430 -2.963151 -7.710512
v -0.216430 -2.963151 -5.480961
v -9.035532 0.203041 17.169815
v -9.035532 0.203041 18.507845
v -9.035532 1.542752 18.997684
v -9.035532 2.033032 17.838915
v 0.000000 0.203051 18.507845
v 0.000000 1.542752 18.997684
v 0.000000 0.203051 17.169815
v 0.000000 2.033032 17.838915
v -1.555930 4.570572 16.548744
v -7.479601 4.570572 16.548744
v -7.479601 4.570572 18.868004
v -1.555930 4.570572 18.868004
v -9.035532 2.523482 20.335966
v -9.035532 3.372672 19.666945
v 0.000000 2.523482 20.335966
v 0.000000 3.372672 19.666945
v -7.479601 3.942986 22.164076
v -1.555930 3.942986 22.164076
v -9.035532 2.254876 24.070673
v -9.035532 3.235426 24.070673
v 0.000000 2.254876 24.070673
v 0.000000 3.235426 24.070673
v -0.588730 0.619791 17.322184
v -0.588730 2.033032 17.838915
v -8.446802 0.619791 17.322184
v -8.446802 2.033032 17.838915
v -0.588730 3.372672 19.666945
v -8.446802 3.372672 19.666945
v -0.588730 3.235426 24.070673
v -8.446802 3.235426 24.070673
v -0.672830 4.570572 18.868004
v -8.362701 4.570572 18.868004
v -0.672840 3.942986 22.164076
v -8.362701 3.942986 22.164076
v -0.643300 5.464273 18.214893
v -0.664180 5.329153 16.462044
v -1.343490 5.464273 16.574404
v -1.343490 5.464273 18.413303
v -8.375011 5.329933 16.648943
v -8.260822 5.386292 18.671406
v -7.581481 5.386292 18.671406
v -7.745412 5.328322 17.009924
v -0.715310 4.755626 21.754385
v -0.837080 5.156103 19.149624
v -1.513460 5.156103 18.988384
v -1.513460 4.755626 21.925674
v -8.290212 5.362583 19.138575
v -8.290212 4.824106 22.059807
v -7.552092 4.824106 22.059807
v -7.552092 5.362583 19.138575
v -7.421412 4.909563 19.063974
v -7.479601 4.386857 22.164076
v -8.362701 4.386857 22.164076
v -8.350882 4.909563 19.063974
v -7.479601 5.037763 16.712034
v -7.479601 5.021993 18.923544
v -8.362701 5.021993 18.923544
v -8.362701 5.037763 16.570312
v -1.555930 5.070103 18.814243
v -1.555930 4.817943 16.588234
v -0.672830 4.817943 16.446514
v -0.672830 5.070103 18.814243
v -1.555930 4.270906 22.020346
v -1.555930 4.847933 18.957165
v -0.672830 4.847933 18.957165
v -0.672840 4.270906 22.020346
v -1.555930 4.268587 22.149765
v -0.672840 4.268587 22.149765
v -1.555930 3.885931 -12.373663
v -7.479601 3.885931 -12.373663
v -7.479601 4.570570 -8.840772
v -1.555930 4.570570 -8.840762
v -9.035532 3.178371 -14.141827
v -9.035532 2.197820 -14.141827
v -9.035532 2.523480 -10.545552
v -9.035532 3.372670 -9.876532
v 0.000000 2.197820 -14.141827
v 0.000000 2.523480 -10.545543
v 0.000000 3.178371 -14.141827
v 0.000000 3.372670 -9.876532
v -7.479601 4.570570 -6.789702
v -1.555930 4.570570 -6.789692
v -9.035532 1.542750 -9.207273
v -9.035532 2.033030 -8.048512
v 0.000000 1.542750 -9.207273
v 0.000000 2.033030 -8.048502
v -9.035532 0.203049 -8.717432
v -9.035532 0.203049 -7.379402
v 0.000000 0.203049 -8.717432
v 0.000000 0.203049 -7.379402
v -0.588730 3.178371 -14.141827
v -0.588730 3.372670 -9.876532
v -8.446802 3.372670 -9.876532
v -8.446802 3.178371 -14.141827
v -0.588730 2.033030 -8.048502
v -8.446802 2.033030 -8.048512
v -0.588730 0.619790 -7.531772
v -8.446802 0.619790 -7.531782
v -0.672830 3.885931 -12.373663
v -0.672830 4.570570 -8.840762
v -8.362701 4.570570 -8.840772
v -8.362692 3.885931 -12.373663
v -0.761510 5.248550 -9.707433
v -0.761510 4.828201 -11.943753
v -1.467260 4.527121 -12.211963
v -1.467260 5.248551 -9.349902
v -8.258402 4.964540 -11.855903
v -8.258392 5.448581 -9.184772
v -7.583891 5.448581 -9.184772
v -7.583891 4.964540 -11.855903
v -0.779690 5.464271 -6.982362
v -0.779690 5.464271 -8.141402
v -1.449070 5.464271 -8.366692
v -1.449070 5.464271 -6.927763
v -8.189362 5.433261 -8.609132
v -8.189372 5.317661 -7.081452
v -7.652932 5.420571 -7.181492
v -7.652932 5.433261 -8.609132
v -7.479601 4.504491 -12.251543
v -7.479601 5.039051 -8.888072
v -8.362692 5.039051 -8.888062
v -8.362692 4.504491 -12.251543
v -7.507612 4.906291 -8.773982
v -7.507612 5.094471 -6.728212
v -8.334692 5.094471 -6.573962
v -8.334692 4.906291 -8.773982
v -1.555930 4.940381 -8.840762
v -1.555930 4.211531 -12.387973
v -0.672830 4.211531 -12.387973
v -0.672830 4.940381 -8.840762
v -1.555930 5.032831 -6.789692
v -1.555930 5.032831 -8.696632
v -0.672830 5.032831 -8.707042
v -0.672830 5.032831 -6.690692
vn -0.0000 1.0000 -0.0000
vn -1.0000 -0.0000 -0.0000
vn -0.7532 -0.6578 -0.0000
vn -0.7595 -0.5958 -0.2612
vn 0.7532 -0.6578 -0.0000
vn 0.7595 -0.5958 -0.2612
vn 1.0000 -0.0000 -0.0000
vn -0.7785 -0.3771 -0.5018
vn 0.7785 -0.3771 -0.5018
vn -0.7742 -0.2174 -0.5944
vn 0.7742 -0.2174 -0.5944
vn -0.7742 -0.2174 0.5944
vn -0.7785 -0.3771 0.5018
vn 0.7742 -0.2174 0.5944
vn 0.7785 -0.3771 0.5018
vn -0.7595 -0.5958 0.2612
vn 0.7595 -0.5958 0.2612
vn -0.0000 0.9813 0.1927
vn -0.0000 0.8066 0.5911
vn -0.0000 0.3434 0.9392
vn -0.0000 0.3434 -0.9392
vn -0.0000 0.8066 -0.5911
vn -0.0000 0.9813 -0.1927
vn 0.9964 0.0842 0.0068
vn -0.9964 0.0842 0.0068
vn 0.9992 0.0369 0.0122
vn -0.9992 0.0369 0.0122
vn -0.0000 -0.9995 0.0331
vn 0.9979 0.0063 0.0651
vn -0.9979 0.0063 0.0651
vn 0.9979 0.0063 -0.0647
vn -0.0000 -0.9995 -0.0328
vn -0.9979 0.0063 -0.0647
vn 0.9992 0.0379 -0.0118
vn -0.9992 0.0379 -0.0118
vn 0.9964 0.0849 -0.0072
vn -0.9964 0.0849 -0.0072
vn -0.2058 0.9776 0.0436
vn -0.0000 0.9972 0.0749
vn -0.0914 0.9949 0.0432
vn 0.0889 0.9953 -0.0380
vn 0.0100 0.9994 -0.0318
vn -0.0006 0.9967 -0.0817
vn -0.0000 0.9995 -0.0305
vn -0.0000 0.1005 0.9949
vn -0.0000 0.1937 -0.9811
vn -0.9727 0.2318 0.0135
vn -0.0000 0.5867 0.8098
vn 0.9727 0.2318 0.0135
vn -0.0000 0.6520 -0.7582
vn 0.9970 -0.0767 0.0103
vn -0.9999 0.0156 -0.0021
vn -0.0000 0.5005 -0.8657
vn -0.0000 -0.0000 1.0000
vn -0.9890 0.1477 -0.0067
vn -0.0000 0.2320 0.9727
vn 0.9749 0.2226 0.0023
vn -0.0000 0.1625 -0.9867
vn 0.9978 0.0655 -0.0030
vn -0.9979 0.0654 -0.0028
vn 0.1821 -0.1054 0.9776
vn -0.0000 0.1951 -0.9808
vn -0.9335 0.3585 -0.0070
vn 0.0270 0.8678 0.4961
vn 0.9481 0.3176 -0.0160
vn -0.0000 0.2985 -0.9544
vn 0.1498 0.3262 -0.9333
vn -0.0000 -0.1221 0.9925
vn -0.9896 0.1415 0.0245
vn -0.0000 0.5691 0.8223
vn 0.8699 0.4914 -0.0422
vn 0.2512 0.6071 -0.7539
vn -0.1565 0.1558 -0.9753
vn -0.0000 0.1070 0.9943
vn 0.9991 -0.0428 -0.0010
vn -0.1578 0.0316 -0.9870
vn -0.9287 0.3701 -0.0230
vn 0.0788 0.7736 0.6287
vn -0.0000 0.4014 0.9159
vn -0.0000 0.3060 -0.9520
vn 0.9679 0.2493 -0.0330
vn 0.0961 0.3563 -0.9294
vn -0.9943 0.1061 -0.0049
vn 0.0951 0.3471 0.9330
vn -0.0000 -0.0439 -0.9990
vn 0.9815 0.1915 0.0073
vn 0.0356 0.5536 -0.8320
vn -0.9624 0.2718 -0.0034
vn 0.0916 0.9088 0.4071
vn -0.1471 0.0696 0.9867
vn -0.0056 0.2878 -0.9577
vn 0.9707 0.2404 -0.0000
vn 0.0956 0.7168 -0.6907
vn -0.9707 0.2404 -0.0000
vn -0.0256 0.4457 0.8948
vn -0.5774 0.5774 0.5774
vn 0.5774 0.5774 0.5774
vn 0.5774 0.5774 -0.5774
vn -0.5774 0.5774 -0.5774
vn -0.7071 -0.0000 0.7071
vn 0.7071 -0.0000 0.7071
vn 0.7071 -0.0000 -0.7071
vn -0.7071 -0.0000 -0.7071
vn -0.3846 -0.9231 -0.0000
vn -0.0000 -0.9853 -0.1711
vn 0.3846 -0.9231 -0.0000
vn -0.0000 -0.9853 0.1711
vn -0.0000 -0.0000 -1.0000
vn -0.7742 -0.2173 -0.5945
vn 0.7742 -0.2174 -0.5945
vn -0.0000 -0.9996 0.0290
vn 0.9979 0.0062 0.0646
vn -0.9979 0.0062 0.0645
vn -0.0000 0.1004 0.9949
vn 0.1885 -0.0948 0.9775
vn 0.0270 0.8678 0.4962
vn -0.0000 0.2986 -0.9544
vn 0.1496 0.3258 -0.9335
vn 0.2512 0.6070 -0.7539
vn -0.1563 0.1549 -0.9755
vn -0.1531 0.0816 0.9848
vn 0.5773 0.5774 0.5774
vn 0.5773 0.5774 -0.5773
vn -0.7742 -0.2174 0.5945
vn -0.0000 0.9956 0.0939
vn -0.7936 -0.5847 0.1683
vn 0.7936 -0.5847 0.1683
vn -0.0000 0.9824 0.1870
vn -0.6904 -0.7216 -0.0519
vn 0.6904 -0.7216 -0.0519
vn -0.0000 0.9995 0.0312
vn 0.9979 0.0062 -0.0642
vn -0.0000 -0.9996 -0.0287
vn -0.9979 0.0062 -0.0642
vn 0.9947 0.1022 0.0102
vn -0.9947 0.1022 0.0102
vn 0.0010 0.9897 0.1430
vn -0.0000 0.9834 0.1813
vn 0.9973 -0.0731 -0.0041
vn -0.9999 0.0149 0.0008
vn -0.9886 0.1487 0.0243
vn 0.9734 0.2238 0.0488
vn 0.1547 0.3352 -0.9294
vn -0.1616 0.1756 -0.9711
vn 0.9669 0.2542 0.0231
vn -0.9940 0.1079 0.0176
vn -0.0000 0.9500 -0.3123
vn -0.0000 0.9954 -0.0956
vn -0.7171 -0.0000 -0.6969
vn -0.5728 -0.6052 -0.5529
vn -0.7960 -0.5832 -0.1621
vn 0.5728 -0.6052 -0.5529
vn 0.7960 -0.5832 -0.1621
vn 0.7171 -0.0000 -0.6969
vn -0.0000 0.9990 -0.0455
vn 0.9944 0.1052 -0.0119
vn -0.9944 0.1052 -0.0119
vn -0.2167 0.9526 -0.2133
vn -0.0000 0.9840 -0.1783
vn -0.9706 0.2374 -0.0401
vn 0.9706 0.2374 -0.0401
vn 0.1823 -0.1050 0.9776
vn 0.9843 0.1731 -0.0344
vn -0.9678 0.2455 -0.0555
vn -0.1473 0.0701 0.9866
vn -0.0000 0.9375 0.3479
vn -0.0000 0.3570 -0.9341
vn -0.0000 0.9284 -0.3715
vt 0.763600 0.502100
vt 0.763600 0.263400
vt 0.906000 0.263400
vt 0.906000 0.502100
vt 0.715600 0.824100
vt 0.713400 0.759600
vt 0.800400 0.736300
vt 0.832800 0.789200
vt 0.806000 0.618000
vt 0.621000 0.618000
vt 0.621000 0.580600
vt 0.806000 0.580600
vt 0.592000 0.792700
vt 0.626400 0.736300
vt 0.988600 0.263400
vt 0.988600 0.502100
vt 0.864100 0.672600
vt 0.916400 0.707400
vt 0.621000 0.553200
vt 0.806000 0.553200
vt 0.507800 0.705500
vt 0.562700 0.672600
vt 0.887400 0.585600
vt 0.951100 0.585600
vt 0.621000 0.514400
vt 0.806000 0.514400
vt 0.474200 0.587500
vt 0.541800 0.587900
vt 0.806000 0.721500
vt 0.621000 0.721500
vt 0.621000 0.682800
vt 0.806000 0.682800
vt 0.537400 0.502100
vt 0.537400 0.263400
vt 0.630800 0.263400
vt 0.630800 0.502100
vt 0.621000 0.655400
vt 0.806000 0.655400
vt 0.715500 0.849700
vt 0.578100 0.817600
vt 0.848000 0.813400
vt 0.486600 0.720500
vt 0.940400 0.722300
vt 0.952600 0.548000
vt 0.978900 0.548900
vt 0.977600 0.586900
vt 0.444900 0.587500
vt 0.473500 0.549200
vt 0.445500 0.548600
vt 0.597700 0.913200
vt 0.716500 0.945100
vt 0.716500 0.991000
vt 0.554000 0.991000
vt 0.835300 0.913200
vt 0.879000 0.991000
vt 0.510700 0.826200
vt 0.442700 0.991000
vt 0.922300 0.826200
vt 0.990300 0.991000
vt 0.434900 0.740100
vt 0.434900 0.989400
vt 0.406000 0.986700
vt 0.406000 0.742700
vt 0.486100 0.734500
vt 0.442700 0.736400
vt 0.946900 0.734500
vt 0.990300 0.736400
vt 0.060600 0.703500
vt 0.063700 0.620600
vt 0.086200 0.618900
vt 0.082700 0.709700
vt 0.198900 0.523600
vt 0.191600 0.432900
vt 0.213100 0.434200
vt 0.220000 0.518900
vt 0.995300 0.227800
vt 0.995300 0.537700
vt 0.061900 0.500300
vt 0.063800 0.456700
vt 0.085200 0.453900
vt 0.083200 0.499600
vt 0.192400 0.341500
vt 0.191500 0.294700
vt 0.203600 0.291900
vt 0.204900 0.341400
vt 0.531700 0.537700
vt 0.531700 0.227800
vt 0.067900 0.336300
vt 0.062400 0.281400
vt 0.083800 0.279500
vt 0.091200 0.331700
vt 0.213000 0.859000
vt 0.201800 0.793300
vt 0.223300 0.791300
vt 0.227300 0.845200
vt 0.056000 0.887500
vt 0.047100 0.802000
vt 0.067700 0.795100
vt 0.081700 0.887800
vt 0.191800 0.712100
vt 0.197200 0.619100
vt 0.220600 0.620700
vt 0.215200 0.713300
vt 0.248500 0.416400
vt 0.268900 0.526700
vt 0.241800 0.527700
vt 0.228800 0.421600
vt 0.152300 0.536300
vt 0.153300 0.424200
vt 0.173500 0.425900
vt 0.179000 0.532700
vt 0.155600 0.396300
vt 0.175800 0.398000
vt 0.156200 0.564000
vt 0.182700 0.560400
vt 0.193200 0.402700
vt 0.202000 0.554500
vt 0.258900 0.621200
vt 0.248500 0.725200
vt 0.234500 0.717600
vt 0.239700 0.619300
vt 0.158500 0.722400
vt 0.159100 0.618000
vt 0.178300 0.618200
vt 0.172600 0.716600
vt 0.170100 0.747900
vt 0.186400 0.748500
vt 0.159300 0.590000
vt 0.178600 0.590100
vt 0.197500 0.592600
vt 0.200500 0.731900
vt 0.240300 0.283200
vt 0.240800 0.348300
vt 0.226300 0.346300
vt 0.217600 0.281500
vt 0.158500 0.352100
vt 0.156100 0.284400
vt 0.175400 0.289900
vt 0.174900 0.347700
vt 0.159800 0.251900
vt 0.181600 0.263300
vt 0.170100 0.375800
vt 0.183700 0.369700
vt 0.194500 0.269100
vt 0.198000 0.360200
vt 0.255400 0.775300
vt 0.276300 0.845900
vt 0.255400 0.846700
vt 0.236100 0.779200
vt 0.165700 0.869600
vt 0.166400 0.791500
vt 0.185900 0.789900
vt 0.186000 0.864600
vt 0.173600 0.896900
vt 0.193800 0.891900
vt 0.164100 0.763600
vt 0.183600 0.762000
vt 0.199600 0.764000
vt 0.219200 0.877400
vt 0.121600 0.270500
vt 0.132000 0.343400
vt 0.110300 0.344700
vt 0.111200 0.273300
vt 0.029100 0.356500
vt 0.029800 0.278400
vt 0.040400 0.279800
vt 0.050700 0.355000
vt 0.033300 0.250600
vt 0.043900 0.252000
vt 0.031000 0.384400
vt 0.061600 0.378800
vt 0.070800 0.262100
vt 0.081500 0.359200
vt 0.091300 0.785000
vt 0.117600 0.886200
vt 0.102700 0.885400
vt 0.080300 0.790800
vt 0.020400 0.900100
vt 0.021400 0.795600
vt 0.033200 0.798500
vt 0.034600 0.895700
vt 0.028700 0.926900
vt 0.043000 0.922500
vt 0.028100 0.768400
vt 0.039800 0.771300
vt 0.052400 0.775700
vt 0.062500 0.915000
vt 0.114000 0.614400
vt 0.111800 0.726400
vt 0.095700 0.726100
vt 0.100000 0.613600
vt 0.022300 0.721500
vt 0.023300 0.609400
vt 0.037300 0.609100
vt 0.038300 0.721700
vt 0.022600 0.581400
vt 0.036700 0.581100
vt 0.022000 0.749500
vt 0.038000 0.749700
vt 0.050400 0.583600
vt 0.058400 0.747000
vt 0.124500 0.440600
vt 0.121600 0.505600
vt 0.101700 0.504800
vt 0.104300 0.444300
vt 0.022900 0.509400
vt 0.023500 0.439100
vt 0.043500 0.443500
vt 0.042900 0.507500
vt 0.025600 0.537300
vt 0.045500 0.535400
vt 0.029600 0.411700
vt 0.049600 0.416200
vt 0.068900 0.423900
vt 0.063800 0.530200
vt 0.524700 0.270300
vt 0.524700 0.495800
vt 0.416500 0.495800
vt 0.416500 0.270300
vt 0.290000 0.270300
vt 0.290000 0.495800
vt 0.271700 0.495800
vt 0.271700 0.270300
vt 0.398200 0.495800
vt 0.398200 0.514000
vt 0.290000 0.514000
vt 0.398200 0.270300
vt 0.290000 0.252100
vt 0.398200 0.252100
vt 0.370000 0.282000
vt 0.318200 0.282000
vt 0.370000 0.484000
vt 0.318200 0.484000
vt 0.914800 0.019900
vt 0.985500 0.019900
vt 0.985500 0.123600
vt 0.914800 0.123600
vt 0.293800 0.019900
vt 0.569000 0.019900
vt 0.569000 0.123600
vt 0.293800 0.123600
vt 0.639600 0.019900
vt 0.639600 0.123600
vt 0.000000 0.000000
s 1
usemtl Material.001
f 1/1/1 2/2/1 3/3/1 4/4/1
f 5/5/2 6/6/3 7/7/4 8/8/2
f 6/9/3 9/10/5 10/11/6 7/12/4
f 9/6/5 11/5/7 12/13/7 10/14/6
f 4/4/1 3/3/1 13/15/1 14/16/1
f 8/8/2 7/7/4 15/17/8 16/18/2
f 7/12/4 10/11/6 17/19/9 15/20/8
f 10/14/6 12/13/7 18/21/7 17/22/9
f 16/18/2 15/17/8 19/23/10 20/24/2
f 15/20/8 17/19/9 21/25/11 19/26/10
f 17/22/9 18/21/7 22/27/7 21/28/11
f 23/27/2 24/28/12 25/22/13 26/21/2
f 24/29/12 27/30/14 28/31/15 25/32/13
f 27/23/14 29/24/7 30/18/7 28/17/15
f 31/33/1 32/34/1 33/35/1 34/36/1
f 26/21/2 25/22/13 35/14/16 36/13/2
f 25/32/13 28/31/15 37/37/17 35/38/16
f 28/17/15 30/18/7 38/8/7 37/7/17
f 34/36/1 33/35/1 2/2/1 1/1/1
f 36/13/2 35/14/16 6/6/3 5/5/2
f 35/38/16 37/37/17 9/10/5 6/9/3
f 37/7/17 38/8/7 11/5/7 9/6/5
s 0
f 12/13/18 11/5/18 39/39/18 40/40/18
f 5/5/18 8/8/18 41/41/18 42/39/18
f 18/21/19 12/13/19 40/40/19 43/42/19
f 8/8/19 16/18/19 44/43/19 41/41/19
f 20/24/20 22/44/20 45/45/20 46/46/20
f 22/27/20 18/21/20 43/42/20 45/47/20
f 16/18/20 20/24/20 46/46/20 44/43/20
f 30/18/21 29/24/21 47/46/21 48/43/21
f 29/48/21 23/27/21 49/47/21 47/49/21
f 23/27/21 26/21/21 50/42/21 49/47/21
f 38/8/22 30/18/22 48/43/22 51/41/22
f 26/21/22 36/13/22 52/40/22 50/42/22
f 11/5/23 38/8/23 51/41/23 39/39/23
f 36/13/23 5/5/23 42/39/23 52/40/23
f 40/50/24 39/51/24 53/52/24 54/53/24
f 42/51/25 41/54/25 55/55/25 56/52/25
f 43/56/26 40/50/26 54/53/26 57/57/26
f 41/54/27 44/58/27 58/59/27 55/55/27
f 46/60/28 45/61/28 59/62/28 60/63/28
f 45/64/29 43/56/29 57/57/29 59/65/29
f 44/58/30 46/66/30 60/67/30 58/59/30
f 48/58/31 47/66/31 61/67/31 62/59/31
f 47/61/32 49/60/32 63/63/32 61/62/32
f 49/64/33 50/56/33 64/57/33 63/65/33
f 51/54/34 48/58/34 62/59/34 65/55/34
f 50/56/35 52/50/35 66/53/35 64/57/35
f 39/51/36 51/54/36 65/55/36 53/52/36
f 52/50/37 42/51/37 56/52/37 66/53/37
f 67/68/38 68/69/38 69/70/38 70/71/38
f 71/72/39 72/73/39 73/74/39 74/75/39
f 58/76/1 57/77/1 14/16/1 13/15/1
f 75/78/1 76/79/1 77/80/1 78/81/1
f 79/82/40 80/83/40 81/84/40 82/85/40
f 62/86/1 64/87/1 32/34/1 31/33/1
f 83/88/41 84/89/41 85/90/41 86/91/41
f 87/92/42 88/93/42 89/94/42 90/95/42
f 91/96/43 92/97/43 93/98/43 94/99/43
f 95/100/44 96/101/44 97/102/44 98/103/44
f 3/104/7 2/105/7 99/106/7 100/107/7
f 56/108/2 55/109/2 101/110/2 102/111/2
f 55/109/45 3/112/45 100/113/45 101/110/45
f 2/114/46 56/108/46 102/111/46 99/115/46
f 102/111/47 101/110/47 72/73/47 71/72/47
f 101/110/48 100/113/48 73/116/48 72/73/48
f 100/107/49 99/106/49 74/75/49 73/74/49
f 99/115/50 102/111/50 71/72/50 74/117/50
f 2/118/51 33/119/51 103/120/51 104/121/51
f 66/122/52 56/123/52 105/124/52 106/125/52
f 33/126/53 66/122/53 106/125/53 103/127/53
f 56/123/54 2/128/54 104/129/54 105/124/54
f 106/125/55 105/124/55 96/101/55 95/100/55
f 105/124/56 104/129/56 97/130/56 96/101/56
f 104/121/57 103/120/57 98/103/57 97/102/57
f 103/127/58 106/125/58 95/100/58 98/131/58
f 13/132/59 3/133/59 107/134/59 108/135/59
f 55/136/60 58/137/60 109/138/60 110/139/60
f 58/137/61 13/140/61 108/141/61 109/138/61
f 3/142/62 55/136/62 110/139/62 107/143/62
f 110/139/63 109/138/63 80/83/63 79/82/63
f 109/138/64 108/141/64 81/144/64 80/83/64
f 108/135/65 107/134/65 82/85/65 81/84/65
f 107/143/66 110/139/66 79/82/66 82/145/66
f 33/146/7 32/147/7 111/148/7 112/149/7
f 64/150/2 66/151/2 113/152/2 114/153/2
f 32/154/67 64/150/67 114/153/67 111/155/67
f 66/151/68 33/156/68 112/157/68 113/152/68
f 114/153/69 113/152/69 88/93/69 87/92/69
f 113/152/70 112/157/70 89/158/70 88/93/70
f 112/149/71 111/148/71 90/95/71 89/94/71
f 111/155/72 114/153/72 87/92/72 90/159/72
f 31/160/2 34/161/2 115/162/2 116/163/2
f 65/164/7 62/165/7 117/166/7 118/167/7
f 62/165/73 31/168/73 116/169/73 117/166/73
f 34/170/74 65/164/74 118/167/74 115/171/74
f 118/167/75 117/166/75 84/89/75 83/88/75
f 117/166/76 116/169/76 85/172/76 84/89/76
f 116/163/77 115/162/77 86/91/77 85/90/77
f 115/171/78 118/167/78 83/88/78 86/173/78
f 34/174/2 1/175/2 119/176/2 120/177/2
f 53/178/7 65/179/7 121/180/7 122/181/7
f 1/182/79 53/178/79 122/181/79 119/183/79
f 65/179/80 34/184/80 120/185/80 121/180/80
f 122/181/81 121/180/81 92/97/81 91/96/81
f 121/180/82 120/185/82 93/186/82 92/97/82
f 120/177/83 119/176/83 94/99/83 93/98/83
f 119/183/84 122/181/84 91/96/84 94/187/84
f 1/188/2 4/189/2 123/190/2 124/191/2
f 54/192/7 53/193/7 125/194/7 126/195/7
f 53/193/85 1/196/85 124/197/85 125/194/85
f 4/198/54 54/192/54 126/195/54 123/199/54
f 126/195/86 125/194/86 68/69/86 67/68/86
f 125/194/87 124/197/87 69/200/87 68/69/87
f 124/191/88 123/190/88 70/71/88 69/70/88
f 123/199/89 126/195/89 67/68/89 70/201/89
f 4/202/2 14/203/2 127/204/2 128/205/2
f 57/206/7 54/207/7 129/208/7 130/209/7
f 14/210/90 57/206/90 130/209/90 127/211/90
f 54/207/91 4/212/91 128/213/91 129/208/91
f 130/209/92 129/208/92 76/79/92 75/78/92
f 129/208/93 128/213/93 77/214/93 76/79/93
f 128/205/94 127/204/94 78/81/94 77/80/94
f 127/211/95 130/209/95 75/78/95 78/215/95
s 1
f 131/216/96 132/217/97 133/218/98 134/219/99
f 135/220/100 136/221/101 132/222/97 131/223/96
f 136/221/101 137/224/102 133/225/98 132/226/97
f 137/224/102 138/227/103 134/219/99 133/218/98
f 138/227/103 135/220/100 131/228/96 134/229/99
s 0
f 135/220/104 138/227/104 139/230/104 140/231/104
f 138/227/105 137/224/105 141/232/105 139/230/105
f 137/224/106 136/221/106 142/233/106 141/232/106
f 136/221/107 135/220/107 140/231/107 142/233/107
f 140/234/2 139/235/2 143/236/2 144/237/2
f 139/238/108 141/239/108 145/240/108 143/241/108
f 141/239/7 142/242/7 146/243/7 145/240/7
f 142/242/54 140/234/54 144/237/54 146/243/54
s 1
f 147/1/1 148/2/1 149/3/1 150/4/1
f 151/5/2 152/6/3 153/7/4 154/8/2
f 152/9/3 155/10/5 156/11/6 153/12/4
f 155/6/5 157/5/7 158/13/7 156/14/6
f 150/4/1 149/3/1 159/15/1 160/16/1
f 154/8/2 153/7/4 161/17/8 162/18/2
f 153/12/4 156/11/6 163/19/9 161/20/8
f 156/14/6 158/13/7 164/21/7 163/22/9
f 162/18/2 161/17/8 165/23/109 166/24/2
f 161/20/8 163/19/9 167/25/110 165/26/109
f 163/22/9 164/21/7 168/27/7 167/28/110
f 169/27/2 170/28/12 171/22/13 172/21/2
f 170/29/12 173/30/14 174/31/15 171/32/13
f 173/23/14 175/24/7 176/18/7 174/17/15
f 177/33/1 178/34/1 179/35/1 180/36/1
f 172/21/2 171/22/13 181/14/16 182/13/2
f 171/32/13 174/31/15 183/37/17 181/38/16
f 174/17/15 176/18/7 184/8/7 183/7/17
f 180/36/1 179/35/1 148/2/1 147/1/1
f 182/13/2 181/14/16 152/6/3 151/5/2
f 181/38/16 183/37/17 155/10/5 152/9/3
f 183/7/17 184/8/7 157/5/7 155/6/5
s 0
f 158/13/18 157/5/18 185/39/18 186/40/18
f 151/5/18 154/8/18 187/41/18 188/39/18
f 164/21/19 158/13/19 186/40/19 189/42/19
f 154/8/19 162/18/19 190/43/19 187/41/19
f 166/24/20 168/44/20 191/45/20 192/46/20
f 168/27/20 164/21/20 189/42/20 191/47/20
f 162/18/20 166/24/20 192/46/20 190/43/20
f 176/18/21 175/24/21 193/46/21 194/43/21
f 175/48/21 169/27/21 195/47/21 193/49/21
f 169/27/21 172/21/21 196/42/21 195/47/21
f 184/8/22 176/18/22 194/43/22 197/41/22
f 172/21/22 182/13/22 198/40/22 196/42/22
f 157/5/23 184/8/23 197/41/23 185/39/23
f 182/13/23 151/5/23 188/39/23 198/40/23
f 186/50/24 185/51/24 199/52/24 200/53/24
f 188/51/25 187/54/25 201/55/25 202/52/25
f 189/56/26 186/50/26 200/53/26 203/57/26
f 187/54/27 190/58/27 204/59/27 201/55/27
f 192/60/111 191/61/111 205/62/111 206/63/111
f 191/64/112 189/56/112 203/57/112 205/65/112
f 190/58/113 192/66/113 206/67/113 204/59/113
f 194/58/31 193/66/31 59/67/31 57/59/31
f 193/61/32 195/60/32 60/63/32 59/62/32
f 195/64/33 196/56/33 58/57/33 60/65/33
f 197/54/34 194/58/34 57/59/34 207/55/34
f 196/56/35 198/50/35 208/53/35 58/57/35
f 185/51/36 197/54/36 207/55/36 199/52/36
f 198/50/37 188/51/37 202/52/37 208/53/37
f 209/68/38 210/69/38 211/70/38 212/71/38
f 213/72/39 214/73/39 215/74/39 216/75/39
f 204/76/1 203/77/1 160/16/1 159/15/1
f 217/78/1 218/79/1 219/80/1 220/81/1
f 221/82/40 222/83/40 223/84/40 224/85/40
f 57/86/1 58/87/1 178/34/1 177/33/1
f 225/88/41 226/89/41 227/90/41 228/91/41
f 229/92/42 230/93/42 231/94/42 232/95/42
f 233/96/43 234/97/43 235/98/43 236/99/43
f 237/100/44 238/101/44 239/102/44 240/103/44
f 149/104/7 148/105/7 241/106/7 242/107/7
f 202/108/2 201/109/2 243/110/2 244/111/2
f 201/109/114 149/112/114 242/113/114 243/110/114
f 148/114/46 202/108/46 244/111/46 241/115/46
f 244/111/47 243/110/47 214/73/47 213/72/47
f 243/110/48 242/113/48 215/116/48 214/73/48
f 242/107/49 241/106/49 216/75/49 215/74/49
f 241/115/50 244/111/50 213/72/50 216/117/50
f 148/118/51 179/119/51 245/120/51 246/121/51
f 208/122/52 202/123/52 247/124/52 248/125/52
f 179/126/53 208/122/53 248/125/53 245/127/53
f 202/123/54 148/128/54 246/129/54 247/124/54
f 248/125/55 247/124/55 238/101/55 237/100/55
f 247/124/56 246/129/56 239/130/56 238/101/56
f 246/121/57 245/120/57 240/103/57 239/102/57
f 245/127/58 248/125/58 237/100/58 240/131/58
f 159/132/59 149/133/59 249/134/59 250/135/59
f 201/136/60 204/137/60 251/138/60 252/139/60
f 204/137/115 159/140/115 250/141/115 251/138/115
f 149/142/62 201/136/62 252/139/62 249/143/62
f 252/139/63 251/138/63 222/83/63 221/82/63
f 251/138/116 250/141/116 223/144/116 222/83/116
f 250/135/65 249/134/65 224/85/65 223/84/65
f 249/143/117 252/139/117 221/82/117 224/145/117
f 179/146/7 178/147/7 253/148/7 254/149/7
f 58/150/2 208/151/2 255/152/2 256/153/2
f 178/154/118 58/150/118 256/153/118 253/155/118
f 208/151/68 179/156/68 254/157/68 255/152/68
f 256/153/69 255/152/69 230/93/69 229/92/69
f 255/152/70 254/157/70 231/158/70 230/93/70
f 254/149/71 253/148/71 232/95/71 231/94/71
f 253/155/119 256/153/119 229/92/119 232/159/119
f 177/160/2 180/161/2 257/162/2 258/163/2
f 207/164/7 57/165/7 259/166/7 260/167/7
f 57/165/120 177/168/120 258/169/120 259/166/120
f 180/170/74 207/164/74 260/167/74 257/171/74
f 260/167/75 259/166/75 226/89/75 225/88/75
f 259/166/76 258/169/76 227/172/76 226/89/76
f 258/163/77 257/162/77 228/91/77 227/90/77
f 257/171/78 260/167/78 225/88/78 228/173/78
f 180/174/2 147/175/2 261/176/2 262/177/2
f 199/178/7 207/179/7 263/180/7 264/181/7
f 147/182/79 199/178/79 264/181/79 261/183/79
f 207/179/80 180/184/80 262/185/80 263/180/80
f 264/181/81 263/180/81 234/97/81 233/96/81
f 263/180/82 262/185/82 235/186/82 234/97/82
f 262/177/83 261/176/83 236/99/83 235/98/83
f 261/183/84 264/181/84 233/96/84 236/187/84
f 147/188/2 150/189/2 265/190/2 266/191/2
f 200/192/7 199/193/7 267/194/7 268/195/7
f 199/193/85 147/196/85 266/197/85 267/194/85
f 150/198/54 200/192/54 268/195/54 265/199/54
f 268/195/86 267/194/86 210/69/86 209/68/86
f 267/194/87 266/197/87 211/200/87 210/69/87
f 266/191/88 265/190/88 212/71/88 211/70/88
f 265/199/89 268/195/89 209/68/89 212/201/89
f 150/202/2 160/203/2 269/204/2 270/205/2
f 203/206/7 200/207/7 271/208/7 272/209/7
f 160/210/121 203/206/121 272/209/121 269/211/121
f 200/207/91 150/212/91 270/213/91 271/208/91
f 272/209/92 271/208/92 218/79/92 217/78/92
f 271/208/93 270/213/93 219/214/93 218/79/93
f 270/205/94 269/204/94 220/81/94 219/80/94
f 269/211/95 272/209/95 217/78/95 220/215/95
s 1
f 273/216/96 274/217/97 275/218/98 276/219/99
f 277/220/100 278/221/101 274/222/97 273/223/96
f 278/221/101 279/224/102 275/225/98 274/226/97
f 279/224/102 280/227/103 276/219/99 275/218/98
f 280/227/103 277/220/100 273/228/96 276/229/99
s 0
f 277/220/104 280/227/104 281/230/104 282/231/104
f 280/227/105 279/224/105 283/232/105 281/230/105
f 279/224/106 278/221/106 284/233/106 283/232/106
f 278/221/107 277/220/107 282/231/107 284/233/107
f 282/234/2 281/235/2 285/236/2 286/237/2
f 281/238/108 283/239/108 287/240/108 285/241/108
f 283/239/7 284/242/7 288/243/7 287/240/7
f 284/242/54 282/234/54 286/237/54 288/243/54
s 1
f 289/216/96 290/217/122 291/218/123 292/219/99
f 293/220/100 294/221/101 290/222/122 289/223/96
f 294/221/101 295/224/102 291/225/123 290/226/122
f 295/224/102 296/227/103 292/219/99 291/218/123
f 296/227/103 293/220/100 289/228/96 292/229/99
s 0
f 293/220/104 296/227/104 297/230/104 298/231/104
f 296/227/105 295/224/105 299/232/105 297/230/105
f 295/224/106 294/221/106 300/233/106 299/232/106
f 294/221/107 293/220/107 298/231/107 300/233/107
f 298/234/2 297/235/2 301/236/2 302/237/2
f 297/238/108 299/239/108 303/240/108 301/241/108
f 299/239/7 300/242/7 304/243/7 303/240/7
f 300/242/54 298/234/54 302/237/54 304/243/54
s 1
f 305/27/2 306/28/124 307/22/13 308/21/2
f 306/29/124 309/30/14 310/31/15 307/32/13
f 309/23/14 311/24/7 312/18/7 310/17/15
f 313/33/1 314/34/1 315/35/125 316/36/125
f 308/21/2 307/22/13 317/14/126 318/13/2
f 307/32/13 310/31/15 319/37/127 317/38/126
f 310/17/15 312/18/7 320/8/7 319/7/127
f 316/36/125 315/35/125 321/2/128 322/1/128
f 318/13/2 317/14/126 323/6/129 324/5/2
f 317/38/126 319/37/127 325/10/130 323/9/129
f 319/7/127 320/8/7 326/5/7 325/6/130
s 0
f 312/18/21 311/24/21 327/46/21 328/43/21
f 311/48/21 305/27/21 329/47/21 327/49/21
f 305/27/21 308/21/21 330/42/21 329/47/21
f 320/8/22 312/18/22 328/43/22 331/41/22
f 308/21/22 318/13/22 332/40/22 330/42/22
f 326/5/131 320/8/131 331/41/131 333/39/131
f 318/13/131 324/5/131 334/39/131 332/40/131
f 328/58/132 327/66/132 205/67/132 203/59/132
f 327/61/133 329/60/133 206/63/133 205/62/133
f 329/64/134 330/56/134 204/57/134 206/65/134
f 331/54/34 328/58/34 203/59/34 335/55/34
f 330/56/35 332/50/35 336/53/35 204/57/35
f 333/51/135 331/54/135 335/55/135 337/52/135
f 332/50/136 334/51/136 338/52/136 336/53/136
f 203/86/1 204/87/1 314/34/1 313/33/1
f 339/88/41 340/89/41 341/90/41 342/91/41
f 343/92/42 344/93/42 345/94/42 346/95/42
f 347/96/137 348/97/137 349/98/137 350/99/137
f 351/100/138 352/101/138 353/102/138 354/103/138
f 321/118/139 315/119/139 355/120/139 356/121/139
f 336/122/140 338/123/140 357/124/140 358/125/140
f 315/126/53 336/122/53 358/125/53 355/127/53
f 338/123/54 321/128/54 356/129/54 357/124/54
f 358/125/141 357/124/141 352/101/141 351/100/141
f 357/124/56 356/129/56 353/130/56 352/101/56
f 356/121/142 355/120/142 354/103/142 353/102/142
f 355/127/58 358/125/58 351/100/58 354/131/58
f 315/146/7 314/147/7 359/148/7 360/149/7
f 204/150/2 336/151/2 361/152/2 362/153/2
f 314/154/143 204/150/143 362/153/143 359/155/143
f 336/151/68 315/156/68 360/157/68 361/152/68
f 362/153/69 361/152/69 344/93/69 343/92/69
f 361/152/70 360/157/70 345/158/70 344/93/70
f 360/149/71 359/148/71 346/95/71 345/94/71
f 359/155/119 362/153/119 343/92/119 346/159/119
f 313/160/2 316/161/2 363/162/2 364/163/2
f 335/164/7 203/165/7 365/166/7 366/167/7
f 203/165/144 313/168/144 364/169/144 365/166/144
f 316/170/74 335/164/74 366/167/74 363/171/74
f 366/167/75 365/166/75 340/89/75 339/88/75
f 365/166/76 364/169/76 341/172/76 340/89/76
f 364/163/77 363/162/77 342/91/77 341/90/77
f 363/171/78 366/167/78 339/88/78 342/173/78
f 316/174/2 322/175/2 367/176/2 368/177/2
f 337/178/7 335/179/7 369/180/7 370/181/7
f 322/182/79 337/178/79 370/181/79 367/183/79
f 335/179/80 316/184/80 368/185/80 369/180/80
f 370/181/145 369/180/145 348/97/145 347/96/145
f 369/180/82 368/185/82 349/186/82 348/97/82
f 368/177/146 367/176/146 350/99/146 349/98/146
f 367/183/84 370/181/84 347/96/84 350/187/84
f 337/193/85 322/196/85 371/197/85 372/194/85
s 1
f 373/1/147 374/2/147 375/3/148 376/4/148
f 377/5/149 378/6/150 379/7/151 380/8/2
f 378/9/150 381/10/152 382/11/153 379/12/151
f 381/6/152 383/5/154 384/13/7 382/14/153
f 376/4/148 375/3/148 385/15/1 386/16/1
f 380/8/2 379/7/151 387/17/8 388/18/2
f 379/12/151 382/11/153 389/19/9 387/20/8
f 382/14/153 384/13/7 390/21/7 389/22/9
f 388/18/2 387/17/8 391/23/10 392/24/2
f 387/20/8 389/19/9 393/25/11 391/26/10
f 389/22/9 390/21/7 394/27/7 393/28/11
s 0
f 384/13/155 383/5/155 395/39/155 396/40/155
f 377/5/155 380/8/155 397/41/155 398/39/155
f 390/21/19 384/13/19 396/40/19 399/42/19
f 380/8/19 388/18/19 400/43/19 397/41/19
f 392/24/20 394/44/20 401/45/20 402/46/20
f 394/27/20 390/21/20 399/42/20 401/47/20
f 388/18/20 392/24/20 402/46/20 400/43/20
f 396/50/156 395/51/156 403/52/156 404/53/156
f 398/51/157 397/54/157 405/55/157 406/52/157
f 399/56/26 396/50/26 404/53/26 62/57/26
f 397/54/27 400/58/27 64/59/27 405/55/27
f 402/60/28 401/61/28 61/62/28 63/63/28
f 401/64/29 399/56/29 62/57/29 61/65/29
f 400/58/30 402/66/30 63/67/30 64/59/30
f 407/68/158 408/69/158 409/70/158 410/71/158
f 411/72/159 412/73/159 413/74/159 414/75/159
f 64/76/1 62/77/1 386/16/1 385/15/1
f 415/78/1 416/79/1 417/80/1 418/81/1
f 419/82/40 420/83/40 421/84/40 422/85/40
f 375/104/7 374/105/7 423/106/7 424/107/7
f 406/108/2 405/109/2 425/110/2 426/111/2
f 405/109/114 375/112/114 424/113/114 425/110/114
f 374/114/46 406/108/46 426/111/46 423/115/46
f 426/111/160 425/110/160 412/73/160 411/72/160
f 425/110/48 424/113/48 413/116/48 412/73/48
f 424/107/161 423/106/161 414/75/161 413/74/161
f 423/115/50 426/111/50 411/72/50 414/117/50
f 385/132/59 375/133/59 427/134/59 428/135/59
f 405/136/60 64/137/60 429/138/60 430/139/60
f 64/137/162 385/140/162 428/141/162 429/138/162
f 375/142/62 405/136/62 430/139/62 427/143/62
f 430/139/63 429/138/63 420/83/63 419/82/63
f 429/138/64 428/141/64 421/144/64 420/83/64
f 428/135/65 427/134/65 422/85/65 421/84/65
f 427/143/117 430/139/117 419/82/117 422/145/117
f 373/188/2 376/189/2 431/190/2 432/191/2
f 404/192/7 403/193/7 433/194/7 434/195/7
f 376/198/54 404/192/54 434/195/54 431/199/54
f 434/195/163 433/194/163 408/69/163 407/68/163
f 433/194/87 432/197/87 409/200/87 408/69/87
f 432/191/164 431/190/164 410/71/164 409/70/164
f 431/199/89 434/195/89 407/68/89 410/201/89
f 376/202/2 386/203/2 435/204/2 436/205/2
f 62/206/7 404/207/7 437/208/7 438/209/7
f 386/210/165 62/206/165 438/209/165 435/211/165
f 404/207/91 376/212/91 436/213/91 437/208/91
f 438/209/92 437/208/92 416/79/92 415/78/92
f 437/208/93 436/213/93 417/214/93 416/79/93
f 436/205/94 435/204/94 418/81/94 417/80/94
f 435/211/95 438/209/95 415/78/95 418/215/95
f 322/244/166 321/244/166 338/244/166 334/244/166 333/244/166 337/244/166
f 433/194/85 403/193/85 373/188/85 432/197/85
f 333/244/54 334/244/54 324/5/54 323/6/54 325/10/54 326/5/54
s 1
f 378/6/150 377/5/149 398/39/167 395/51/167 383/5/154 381/6/152
f 395/51/167 398/39/167 406/52/168 374/114/147 373/1/147 403/193/168
